<svg xmlns="http://www.w3.org/2000/svg" xml:space="preserve" id="Layer_1" x="0" y="0" style="enable-background:new 0 0 840 730" version="1.1" viewBox="0 0 840 730"><style>.st13{display:none}.st14{display:inline}</style><linearGradient id="SVGID_1_" x1="60.677" x2="666.423" y1="153.506" y2="759.253" gradientUnits="userSpaceOnUse"><stop offset="0" style="stop-color:#b456c2"/><stop offset="1" style="stop-color:#2988f1"/></linearGradient><path d="M769.26 564.48H221.11l47.93-78.46a12.41 12.41 0 0 0 1.46-9.46l-83.59-339.67a12.42 12.42 0 0 0-7.4-8.55L33.49 68.95c-6.38-2.6-13.63.47-16.22 6.84-2.59 6.37.47 13.63 6.84 16.22L164.26 149l80.83 328.47-56.79 92.97a12.407 12.407 0 0 0-.23 12.57c2.2 3.93 6.35 6.36 10.85 6.36h129.76c-12.15 13.4-19.63 31.12-19.63 50.59 0 41.62 33.86 75.49 75.49 75.49s75.49-33.86 75.49-75.49c0-19.47-7.48-37.19-19.63-50.59h150.64c-12.15 13.4-19.63 31.12-19.63 50.59 0 41.62 33.87 75.49 75.49 75.49s75.49-33.86 75.49-75.49c0-19.47-7.47-37.19-19.63-50.59h66.5c6.88 0 12.45-5.57 12.45-12.45s-5.57-12.44-12.45-12.44zm-334.12 75.48c0 27.9-22.7 50.6-50.6 50.6-27.9 0-50.59-22.7-50.59-50.6 0-27.9 22.7-50.59 50.59-50.59 27.9 0 50.6 22.69 50.6 50.59zm262.36 0c0 27.9-22.7 50.6-50.59 50.6-27.9 0-50.6-22.7-50.6-50.6 0-27.9 22.7-50.59 50.6-50.59 27.89 0 50.59 22.69 50.59 50.59z" style="fill:url(#SVGID_1_)"/><linearGradient id="SVGID_00000038413306166140705730000006625769589900851107_" x1="1957.22" x2="860.745" y1="574.72" y2="574.72" gradientUnits="userSpaceOnUse"><stop offset="0" style="stop-color:#b456c2"/><stop offset="1" style="stop-color:#2988f1"/></linearGradient><linearGradient id="SVGID_00000057120295800731715010000017583920979322317953_" x1="1957.219" x2="860.744" y1="574.72" y2="574.72" gradientUnits="userSpaceOnUse"><stop offset="0" style="stop-color:#b456c2"/><stop offset="1" style="stop-color:#2988f1"/></linearGradient><linearGradient id="SVGID_00000117634471503091209030000007779208732964788111_" x1="276.359" x2="882.105" y1="-62.167" y2="543.58" gradientUnits="userSpaceOnUse"><stop offset="0" style="stop-color:#b456c2"/><stop offset="1" style="stop-color:#2988f1"/></linearGradient><path d="m660.5 321.97 55.73 20.55 55.73 20.55-32.83 19.21 35.47 35.46-18.33 18.33-35.47-35.47-19.21 32.83-20.55-55.73-20.54-55.73m0-24.89a24.92 24.92 0 0 0-17.61 7.29 24.882 24.882 0 0 0-5.75 26.21l20.55 55.73 20.55 55.73a24.876 24.876 0 0 0 21.16 16.18c.73.06 1.47.1 2.2.1 8.78 0 16.99-4.65 21.48-12.32l2.93-5 12.66 12.66a24.812 24.812 0 0 0 17.6 7.29c6.37 0 12.74-2.43 17.6-7.29l18.33-18.33a24.887 24.887 0 0 0 0-35.2l-12.66-12.66 5-2.93a24.887 24.887 0 0 0-3.97-44.83l-55.73-20.54-55.73-20.54a24.777 24.777 0 0 0-8.61-1.55z" style="fill:url(#SVGID_00000117634471503091209030000007779208732964788111_)"/><linearGradient id="SVGID_00000067935670774074137150000005072793455309403268_" x1="200.207" x2="805.954" y1="13.978" y2="619.725" gradientUnits="userSpaceOnUse"><stop offset="0" style="stop-color:#b456c2"/><stop offset="1" style="stop-color:#2988f1"/></linearGradient><path d="m794.62 184.48-133.01-80.44L528.6 23.59A24.82 24.82 0 0 0 515.72 20c-4.46 0-8.92 1.2-12.88 3.59l-133.01 80.44-133.01 80.44c-9.56 5.78-14.1 17.22-11.09 27.98 3 10.76 12.8 18.2 23.98 18.2h37.65v285.09c0 13.75 11.14 24.89 24.89 24.89H719.2c13.75 0 24.89-11.14 24.89-24.89v-58.1c-1.93-1.09-3.79-2.35-5.43-3.99L726 441l-2.93 5c-1.09 1.86-2.4 3.52-3.87 5v64.75H312.25V205.77H249.7l133.01-80.44 133.01-80.44 133.01 80.44 133.01 80.44H719.2v111.31l5.64 2.08 19.25 7.1v-95.6h37.65c11.17 0 20.98-7.44 23.98-18.2 3-10.76-1.54-22.2-11.1-27.98z" style="fill:url(#SVGID_00000067935670774074137150000005072793455309403268_)"/><linearGradient id="SVGID_00000095315014344268804670000016652974748934640559_" x1="176.513" x2="782.259" y1="37.676" y2="643.423" gradientUnits="userSpaceOnUse"><stop offset="0" style="stop-color:#b456c2"/><stop offset="1" style="stop-color:#2988f1"/></linearGradient><path d="M660.51 539.48c-4.36 0-8.59-2.3-10.87-6.37-32.8-58.6-82.67-105.95-148.22-140.75-6.07-3.22-8.38-10.76-5.15-16.83 3.22-6.07 10.75-8.38 16.83-5.16 69.84 37.08 123.09 87.74 158.27 150.59 3.35 6 1.22 13.58-4.78 16.94a12.538 12.538 0 0 1-6.08 1.58z" style="fill:url(#SVGID_00000095315014344268804670000016652974748934640559_)"/><linearGradient id="SVGID_00000155851175534900777940000015584078039899617452_" x1="80.666" x2="686.416" y1="133.512" y2="739.263" gradientUnits="userSpaceOnUse"><stop offset="0" style="stop-color:#b456c2"/><stop offset="1" style="stop-color:#2988f1"/></linearGradient><path d="M529.04 539.47c-3.2 0-6.4-1.22-8.83-3.67-69.11-69.57-159.1-101.17-222.43-115.43-6.71-1.51-10.92-8.17-9.41-14.88 1.51-6.7 8.2-10.91 14.88-9.41 66.55 14.99 161.28 48.35 234.61 122.17 4.85 4.88 4.82 12.76-.06 17.6a12.34 12.34 0 0 1-8.76 3.62z" style="fill:url(#SVGID_00000155851175534900777940000015584078039899617452_)"/><linearGradient id="SVGID_00000122680931650617288340000013649034535853138816_" x1="204.971" x2="810.715" y1="9.222" y2="614.966" gradientUnits="userSpaceOnUse"><stop offset="0" style="stop-color:#b456c2"/><stop offset="1" style="stop-color:#2988f1"/></linearGradient><path d="M451.78 413.89c-31.01 0-59.68-15.76-76.37-41.54-49.81-5.73-87.89-47.87-87.89-98.77 0-46.09 31.25-85.28 74.68-96.33a90.167 90.167 0 0 1-1.37-15.76c0-50.15 40.8-90.95 90.95-90.95 50.15 0 90.95 40.8 90.95 90.95 0 5.3-.46 10.57-1.37 15.75 43.44 11.05 74.68 50.24 74.68 96.33 0 50.9-38.08 93.04-87.89 98.77a90.923 90.923 0 0 1-76.37 41.55zm0-318.45c-36.43 0-66.06 29.63-66.06 66.06 0 7.35 1.22 14.6 3.61 21.54 1.24 3.58.77 7.53-1.26 10.73-2.03 3.2-5.41 5.3-9.18 5.7-37.91 4.07-66.49 35.93-66.49 74.1 0 39.88 31.18 72.59 70.99 74.46 4.34.2 8.26 2.66 10.34 6.47 11.6 21.27 33.84 34.49 58.04 34.49 24.21 0 46.45-13.22 58.04-34.49 2.08-3.82 6-6.27 10.34-6.47 39.81-1.87 70.99-34.57 70.99-74.46 0-38.18-28.58-70.04-66.49-74.1-3.77-.41-7.15-2.5-9.18-5.7-2.03-3.2-2.5-7.15-1.26-10.73 2.4-6.95 3.61-14.19 3.61-21.54.02-36.43-29.62-66.06-66.04-66.06z" style="fill:url(#SVGID_00000122680931650617288340000013649034535853138816_)"/><linearGradient id="SVGID_00000031196848030431740550000010106912959477319610_" x1="175.783" x2="781.514" y1="38.418" y2="644.149" gradientUnits="userSpaceOnUse"><stop offset="0" style="stop-color:#b456c2"/><stop offset="1" style="stop-color:#2988f1"/></linearGradient><path d="M451.78 479.61c-6.88 0-12.45-5.57-12.45-12.45v-305.5c0-6.87 5.57-12.45 12.45-12.45 6.88 0 12.45 5.57 12.45 12.45v305.5c-.01 6.88-5.58 12.45-12.45 12.45z" style="fill:url(#SVGID_00000031196848030431740550000010106912959477319610_)"/><linearGradient id="SVGID_00000070107822798385976530000007238147161157017498_" x1="176.053" x2="781.843" y1="38.093" y2="643.882" gradientUnits="userSpaceOnUse"><stop offset="0" style="stop-color:#b456c2"/><stop offset="1" style="stop-color:#2988f1"/></linearGradient><path d="M452.37 373.18c-3.18 0-6.37-1.22-8.8-3.65-4.86-4.86-4.86-12.74 0-17.6l46.33-46.32c4.86-4.86 12.74-4.86 17.6 0 4.86 4.86 4.86 12.74 0 17.6l-46.33 46.32a12.378 12.378 0 0 1-8.8 3.65z" style="fill:url(#SVGID_00000070107822798385976530000007238147161157017498_)"/><linearGradient id="SVGID_00000169527954789915290400000012366686099585145744_" x1="170.389" x2="776.133" y1="43.8" y2="649.545" gradientUnits="userSpaceOnUse"><stop offset="0" style="stop-color:#b456c2"/><stop offset="1" style="stop-color:#2988f1"/></linearGradient><path d="M451.78 337.64c-3.18 0-6.37-1.22-8.8-3.65l-39.24-39.24c-4.86-4.86-4.86-12.74 0-17.6 4.86-4.86 12.74-4.86 17.6 0l39.24 39.24c4.86 4.86 4.86 12.74 0 17.6a12.42 12.42 0 0 1-8.8 3.65z" style="fill:url(#SVGID_00000169527954789915290400000012366686099585145744_)"/><linearGradient id="SVGID_00000101064104760039608740000003136293749506065055_" x1="214.404" x2="820.152" y1="-.214" y2="605.534" gradientUnits="userSpaceOnUse"><stop offset="0" style="stop-color:#b456c2"/><stop offset="1" style="stop-color:#2988f1"/></linearGradient><path d="M451.78 249.6c-3.18 0-6.37-1.22-8.8-3.65l-31.18-31.17c-4.86-4.86-4.86-12.74 0-17.6 4.86-4.86 12.74-4.86 17.6 0l31.18 31.17c4.86 4.86 4.86 12.74 0 17.6a12.378 12.378 0 0 1-8.8 3.65z" style="fill:url(#SVGID_00000101064104760039608740000003136293749506065055_)"/><linearGradient id="SVGID_00000183954238193735432680000000019980690707865751_" x1="219.18" x2="824.969" y1="-5.025" y2="600.764" gradientUnits="userSpaceOnUse"><stop offset="0" style="stop-color:#b456c2"/><stop offset="1" style="stop-color:#2988f1"/></linearGradient><path d="M451.78 290.36c-3.18 0-6.37-1.22-8.8-3.65-4.86-4.86-4.86-12.74 0-17.6l50.34-50.33c4.86-4.86 12.74-4.86 17.6 0 4.86 4.86 4.86 12.74 0 17.6l-50.34 50.33a12.42 12.42 0 0 1-8.8 3.65z" style="fill:url(#SVGID_00000183954238193735432680000000019980690707865751_)"/></svg>